<svg xmlns="http://www.w3.org/2000/svg" width="1200" height="630" viewBox="0 0 1200 630" role="img" aria-label="Food Flow Open Graph image">
  <defs>
    <linearGradient id="pageBg" x1="0" y1="0" x2="1200" y2="630" gradientUnits="userSpaceOnUse">
      <stop offset="0" stop-color="#fff4e6" />
      <stop offset="1" stop-color="#ffefcb" />
    </linearGradient>
    <linearGradient id="iconBg" x1="0" y1="0" x2="1" y2="1">
      <stop offset="0" stop-color="#023820" />
      <stop offset="1" stop-color="#012b18" />
    </linearGradient>
    <linearGradient id="bun" x1="0" y1="0" x2="1" y2="1">
      <stop offset="0" stop-color="#f9a11b" />
      <stop offset="1" stop-color="#d98817" />
    </linearGradient>
    <filter id="softShadow" x="-20%" y="-20%" width="140%" height="140%">
      <feDropShadow dx="0" dy="18" stdDeviation="20" flood-color="#023820" flood-opacity="0.2" />
    </filter>
  </defs>

  <rect width="1200" height="630" fill="url(#pageBg)" />

  <g transform="translate(600 250)" filter="url(#softShadow)">
    <rect x="-120" y="-120" width="240" height="240" rx="56" fill="url(#iconBg)" />

    <path d="M-53 -18c0-27 23-48 53-48s53 21 53 48v6H-53z" fill="url(#bun)" />
    <path d="M-58 8h116c5.3 0 9.6 4.3 9.6 9.6S63.3 27.2 58 27.2H-58c-5.3 0-9.6-4.3-9.6-9.6S-63.3 8-58 8Z" fill="#c94a38" />
    <path d="M-48 40h96c4.9 0 8.8 3.9 8.8 8.8s-3.9 8.8-8.8 8.8H-48c-4.9 0-8.8-3.9-8.8-8.8s3.9-8.8 8.8-8.8Z" fill="#fff4e6" />
  </g>

  <text x="600" y="460" text-anchor="middle" fill="#023820" font-size="86" font-family="Oswald, Arial, sans-serif" font-weight="700" letter-spacing="2">
    Food Flow
  </text>
</svg>
