<svg xmlns="http://www.w3.org/2000/svg" viewBox="0 0 64 64" role="img" aria-label="Food Flow favicon">
  <defs>
    <linearGradient id="bg" x1="8" y1="6" x2="56" y2="58" gradientUnits="userSpaceOnUse">
      <stop offset="0" stop-color="#2c3740" />
      <stop offset="1" stop-color="#202a33" />
    </linearGradient>
    <linearGradient id="bun" x1="20" y1="20" x2="44" y2="44" gradientUnits="userSpaceOnUse">
      <stop offset="0" stop-color="#c9b69a" />
      <stop offset="1" stop-color="#7a6851" />
    </linearGradient>
  </defs>
  <rect width="64" height="64" rx="16" fill="url(#bg)" />
  <path d="M18 27c0-7.2 6.2-12.8 14-12.8S46 19.8 46 27v1.4H18z" fill="url(#bun)" />
  <path d="M21 30.6h22c.9 0 1.6.7 1.6 1.6s-.7 1.6-1.6 1.6H21c-.9 0-1.6-.7-1.6-1.6s.7-1.6 1.6-1.6Z" fill="#ece6de" />
  <path d="M17 34h30c1.4 0 2.6 1.2 2.6 2.6S48.4 39.2 47 39.2H17c-1.4 0-2.6-1.2-2.6-2.6S15.6 34 17 34Z" fill="#7a6851" />
  <path d="M20 42.4h24c1.3 0 2.4 1.1 2.4 2.4S45.3 47.2 44 47.2H20c-1.3 0-2.4-1.1-2.4-2.4s1.1-2.4 2.4-2.4Z" fill="#ece6de" />
  <path d="M47.5 18.5c-3.8 2.2-5.7 4.8-5.7 7.8 0 1.7.7 3.6 2 5.7 3.8-2.2 5.7-4.8 5.7-7.8 0-1.7-.6-3.6-2-5.7Z" fill="#c9b69a" />
  <path d="M51 15c-5 2.6-7.8 6.4-7.8 11 0 2.2.7 4.3 2 6.4l2.2-1.2c-.9-1.7-1.4-3.3-1.4-4.9 0-3.5 2.2-6.4 6.3-8.7Z" fill="#fbfbfa" opacity="0.92" />
</svg>