<svg xmlns="http://www.w3.org/2000/svg" viewBox="0 0 64 64" role="img" aria-label="Food Flow favicon">
  <defs>
    <linearGradient id="bg" x1="8" y1="6" x2="56" y2="58" gradientUnits="userSpaceOnUse">
      <stop offset="0" stop-color="#023820" />
      <stop offset="1" stop-color="#012b18" />
    </linearGradient>
    <linearGradient id="bun" x1="20" y1="20" x2="44" y2="44" gradientUnits="userSpaceOnUse">
      <stop offset="0" stop-color="#f9a11b" />
      <stop offset="1" stop-color="#d98817" />
    </linearGradient>
  </defs>
  <rect width="64" height="64" rx="16" fill="url(#bg)" />
  <path d="M18 27c0-7.2 6.2-12.8 14-12.8S46 19.8 46 27v1.4H18z" fill="url(#bun)" />
  <path d="M17 34h30c1.4 0 2.6 1.2 2.6 2.6S48.4 39.2 47 39.2H17c-1.4 0-2.6-1.2-2.6-2.6S15.6 34 17 34Z" fill="#c94a38" />
  <path d="M20 42.4h24c1.3 0 2.4 1.1 2.4 2.4S45.3 47.2 44 47.2H20c-1.3 0-2.4-1.1-2.4-2.4s1.1-2.4 2.4-2.4Z" fill="#fff4e6" />
</svg>